<?xml version="1.0" encoding="UTF-8"?><svg id="Ebene_1" xmlns="http://www.w3.org/2000/svg" xmlns:xlink="http://www.w3.org/1999/xlink" viewBox="0 0 87.17 87.17"><defs><style>.cls-1{fill:none;}.cls-2{clip-path:url(#clippath);}.cls-3{fill:#fff;}</style><clipPath id="clippath"><rect class="cls-1" x="-.16" y="0" width="87.48" height="87.17"/></clipPath></defs><rect x="-.16" y="0" width="87.48" height="87.17"/><g class="cls-2"><path class="cls-3" d="m13.21,53.34v-25.31c0-.56-.45-1.01-1.01-1.01h-3.76c-.56,0-1.01.45-1.01,1.01v31.12c0,.56.45,1.01,1.01,1.01h17.44c.56,0,1.01-.45,1.01-1.01v-3.79c0-.56-.45-1.01-1.01-1.01h-11.65c-.56,0-1.01-.45-1.01-1.01"/><path class="cls-3" d="m70.04,33.83v25.31c0,.56-.45,1.01-1.01,1.01h-4.12c-.56,0-1.01-.45-1.01-1.01v-25.31c0-.56-.45-1.01-1.01-1.01h-7.72c-.56,0-1.01-.45-1.01-1.01v-3.79c0-.56.45-1.01,1.01-1.01h23.6c.56,0,1.01.45,1.01,1.01v3.79c0,.56-.45,1.01-1.01,1.01h-7.72c-.56,0-1.01.45-1.01,1.01"/><path class="cls-3" d="m46.71,53.97c-.89.74-2.77,1.97-5.33,1.97-4.01,0-6.5-2.07-6.5-5.41,0-2.84,1.95-4.58,2.78-5.19.08-.06.17-.09.26-.09.12,0,.23.04.31.12l8.49,7.92c.1.09.15.21.14.34,0,.13-.06.25-.17.34m9.39-9.77c.01-.36.31-.66.68-.66h2.13c.58,0,1.06-.47,1.06-1.05v-2.99c0-.58-.47-1.05-1.06-1.05h-9.95c-.58,0-1.06.47-1.06,1.05v2.99c0,.58.47,1.05,1.06,1.05h1.84c.31,0,.56.26.55.57-.06,1.33-.31,3.12-.9,4.7-.08.21-.28.29-.42.29-.08,0-.2-.02-.31-.12,0,0-9.5-8.97-9.58-9.04-.97-.9-3.56-3.28-3.56-5.49s1.57-3.49,4.42-3.49c1.61,0,3.45.57,4.72,1.05.48.18,1.02.1,1.5-.29.24-.2.38-.5.38-.81v-2.14c.02-.56-.31-1.06-.83-1.28-1.04-.44-3.22-1.17-6.15-1.17-1.87,0-4.53.35-6.58,2.03-1.98,1.61-2.98,3.78-2.98,6.43,0,3.21,1.89,5.65,3.01,6.82.09.1.13.22.12.35-.01.13-.08.25-.19.33-1.78,1.25-4.78,4.09-4.78,9.03,0,2.64,1.05,5.04,2.95,6.75,2.07,1.85,5.04,2.83,8.59,2.83s6.92-1.36,9.67-3.84c.08-.07.18-.11.29-.11.12,0,.23.04.31.12l3.75,2.79c.28.19.54.33.85.33h4.23c.47,0,.83-.54.86-1.07.03-.45-.09-.91-.43-1.22l-6.14-5.11c-.16-.15-.19-.39-.08-.56,1.24-1.98,1.9-4.61,2.02-8.02"/></g></svg>